# Blender v2.73 (sub 0) OBJ File: 'slope_test_icorner_half_tall_onetexture.blend'
# www.blender.org
o Cube_Cube.000
v 0.500000 0.500000 0.500000
v -0.500000 0.500000 0.500000
v -0.500000 -0.500000 0.500000
v 0.500000 -0.500000 0.500000
v -0.500000 0.000000 -0.500000
v 0.500000 0.500000 -0.500000
v 0.500000 -0.500000 0.500000
v 0.500000 -0.500000 -0.500000
v -0.500000 0.000000 -0.500000
v -0.500000 -0.500000 -0.500000
vt 1.000000 1.000000
vt 0.000000 1.000000
vt 0.000000 0.000000
vt 1.000000 0.000000
vt 1.000000 0.500000
vt 0.000000 0.500000
vn 1.000000 -0.000000 0.000000
vn 0.000000 0.894400 -0.447200
vn -0.000000 -0.000000 1.000000
vn -0.447200 0.894400 -0.000000
vn -0.000000 -1.000000 -0.000000
vn 0.000000 -0.000000 -1.000000
vn -1.000000 0.000000 0.000000
s off
f 6/1/1 1/2/1 7/3/1 8/4/1
f 2/1/2 1/2/2 5/4/2
f 3/3/3 7/4/3 1/1/3 2/2/3
f 1/2/4 6/3/4 9/4/4
f 3/1/5 10/2/5 8/3/5 7/4/5
f 8/3/6 10/4/6 5/5/6 6/2/6
f 3/4/7 2/1/7 5/6/7 10/3/7
l 1 4
l 3 4
