# Blender v2.73 (sub 0) OBJ File: 'slope_test_slope_long_onetexture.blend'
# www.blender.org
o Cube
v -0.500000 -0.500000 -1.500000
v 0.500000 -0.500000 -1.500000
v 0.500000 -0.500000 0.500000
v -0.500000 -0.500000 0.500000
v 0.500000 0.500000 0.500000
v -0.500000 0.500000 0.500000
v 0.000000 -0.500000 -1.500000
v -0.500000 -0.500000 -0.500000
v 0.500000 -0.500000 -0.500000
v -0.000000 -0.500000 0.500000
v 0.500000 0.000000 0.500000
v -0.500000 0.000000 0.500000
v 0.500000 0.000000 -0.500000
v -0.000000 0.500000 0.500000
v -0.500000 0.000000 -0.500000
v 0.000000 -0.500000 -0.500000
v 0.000000 0.000000 -0.500000
v -0.000000 0.000000 0.500000
vt 0.500000 1.000000
vt 0.000000 1.000000
vt 0.000000 0.000000
vt 0.500000 0.000000
vt 1.000000 0.000000
vt 1.000000 1.000000
vt 0.500000 0.500000
vt 1.000000 0.500000
vt 0.000000 0.500000
vn 0.000000 -1.000000 0.000000
vn 0.000000 0.894400 -0.447200
vn -0.000000 -0.000000 1.000000
vn 1.000000 0.000000 0.000000
vn -1.000000 0.000000 -0.000000
s off
f 16/1/1 9/2/1 3/3/1 10/4/1
f 17/1/2 14/4/2 5/5/2 13/6/2
f 18/7/3 14/4/3 6/5/3 12/8/3
f 2/5/4 13/9/4 9/3/4
f 6/6/5 15/9/5 12/8/5
f 8/6/1 16/1/1 10/4/1 4/5/1
f 1/6/1 7/1/1 16/4/1 8/5/1
f 7/1/1 2/2/1 9/3/1 16/4/1
f 7/4/2 17/1/2 13/2/2 2/3/2
f 1/5/2 15/6/2 17/1/2 7/4/2
f 15/2/2 6/3/2 14/4/2 17/1/2
f 10/1/3 18/7/3 12/8/3 4/6/3
f 3/2/3 11/9/3 18/7/3 10/1/3
f 11/9/3 5/3/3 14/4/3 18/7/3
f 9/5/4 11/9/4 3/3/4
f 9/5/4 13/8/4 11/9/4
f 13/8/4 5/2/4 11/9/4
f 12/8/5 8/3/5 4/5/5
f 12/8/5 15/9/5 8/3/5
f 15/8/5 1/3/5 8/5/5
