# Blender v2.73 (sub 0) OBJ File: 'slope_test_corner_pyramid_tall_2_onetexture.blend'
# www.blender.org
o Cube_Cube.002
v -0.500000 -0.000000 0.500000
v -0.500000 -0.500000 0.500000
v 0.500000 -0.500000 0.500000
v 0.500000 0.500000 0.500000
v 0.500000 -0.500000 -0.500000
v 0.500000 -0.000000 -0.500000
v -0.500000 -0.500000 -0.500000
v -0.500000 -0.000000 -0.500000
vt 0.000000 0.500000
vt 0.000000 0.000000
vt 1.000000 0.000000
vt 1.000000 1.000000
vt 0.000000 1.000000
vt 1.000000 0.500000
vn 0.000000 -0.000000 1.000000
vn 1.000000 -0.000000 -0.000000
vn 0.000000 0.894400 -0.447200
vn -1.000000 0.000000 0.000000
vn -0.447200 0.894400 0.000000
vn 0.000000 0.000000 -1.000000
vn -0.000000 -1.000000 -0.000000
s off
f 1/1/1 2/2/1 3/3/1 4/4/1
f 4/5/2 3/2/2 5/3/2 6/6/2
f 8/3/3 4/5/3 6/2/3
f 1/6/4 8/1/4 7/2/4 2/3/4
f 4/5/5 8/3/5 1/4/5
f 6/1/6 5/2/6 7/3/6 8/6/6
f 5/5/7 3/2/7 2/3/7 7/4/7
