# Blender v2.73 (sub 0) OBJ File: 'slope_test_corner_pyramid_tall_1_onetexture.blend'
# www.blender.org
o Cube
v -0.500000 -0.500000 0.500000
v 0.500000 -0.500000 -0.500000
v 0.500000 -0.500000 0.500000
v 0.500000 0.500000 0.500000
vt 1.000000 1.000000
vt 0.000000 0.000000
vt 1.000000 0.000000
vt 0.000000 1.000000
vt 0.500000 1.000000
vn 0.000000 0.000000 1.000000
vn 1.000000 0.000000 0.000000
vn 0.000000 -1.000000 0.000000
vn -0.577400 0.577400 -0.577400
s off
f 4/1/1 1/2/1 3/3/1
f 2/3/2 4/4/2 3/2/2
f 3/2/3 1/3/3 2/4/3
f 1/3/4 4/5/4 2/2/4
